# xmcd
#
# Track frame offsets:
#	151
#	20643
#	32223
#	54707
#	71632
#	84754
#	98920
#	127818
#	142199
#	161658
#	174114
#	187744
#
# Disc length: 2647 seconds
#
# Revision: 0
# Processed by: cddbd v1.5.1PL0 Copyright (c) Steve Scherf et al.
# Submitted via: EasyCDDAExtractor 8.1.4.1
#
DISCID=980a550c
DTITLE=Valerie Seale - Emigrant Eyes
DYEAR=2005
DGENRE=Country
TTITLE0=Caledonia
TTITLE1=Star Of The County Down
TTITLE2=Fields Of Athenry
TTITLE3=Emigrant Eyes
TTITLE4=She Moved Through The Fair
TTITLE5=Far Away In Australia
TTITLE6=The Boston Rose
TTITLE7=Sound Of Loneliness
TTITLE8=All The Lies That you Told Me
TTITLE9=Daddy Sang Bass
TTITLE10=Galway Bay
TTITLE11=Reels (Valerie Plays The Spoons)
EXTD=
EXTT0=
EXTT1=
EXTT2=
EXTT3=
EXTT4=
EXTT5=
EXTT6=
EXTT7=
EXTT8=
EXTT9=
EXTT10=
EXTT11=
PLAYORDER=
